{
    "asset" : {
        "generator" : "Khronos glTF Blender I/O v1.7.33",
        "version" : "2.0"
    },
    "scene" : 0,
    "scenes" : [
        {
            "name" : "Scene",
            "nodes" : [
                0
            ]
        }
    ],
    "nodes" : [
        {
            "mesh" : 0,
            "name" : "Chair",
            "rotation" : [
                0,
                -0.00459316885098815,
                0,
                0.9999894499778748
            ],
            "scale" : [
                2.4777519702911377,
                2.477752923965454,
                2.4777519702911377
            ],
            "translation" : [
                0.0013910233974456787,
                0.76699298620224,
                -0.42333677411079407
            ]
        }
    ],
    "materials" : [
        {
            "doubleSided" : true,
            "name" : "Material.001",
            "pbrMetallicRoughness" : {
                "metallicFactor" : 0
            }
        }
    ],
    "meshes" : [
        {
            "name" : "Cube.004",
            "primitives" : [
                {
                    "attributes" : {
                        "POSITION" : 0,
                        "NORMAL" : 1,
                        "TEXCOORD_0" : 2,
                        "COLOR_0" : 3
                    },
                    "indices" : 4,
                    "material" : 0
                }
            ]
        }
    ],
    "accessors" : [
        {
            "bufferView" : 0,
            "componentType" : 5126,
            "count" : 13419,
            "max" : [
                0.2561274766921997,
                0.4921915829181671,
                0.4301668405532837
            ],
            "min" : [
                -0.2561213970184326,
                -0.3064991533756256,
                -0.07505926489830017
            ],
            "type" : "VEC3"
        },
        {
            "bufferView" : 1,
            "componentType" : 5126,
            "count" : 13419,
            "type" : "VEC3"
        },
        {
            "bufferView" : 2,
            "componentType" : 5126,
            "count" : 13419,
            "type" : "VEC2"
        },
        {
            "bufferView" : 3,
            "componentType" : 5123,
            "count" : 13419,
            "normalized" : true,
            "type" : "VEC4"
        },
        {
            "bufferView" : 4,
            "componentType" : 5123,
            "count" : 21666,
            "type" : "SCALAR"
        }
    ],
    "bufferViews" : [
        {
            "buffer" : 0,
            "byteLength" : 161028,
            "byteOffset" : 0
        },
        {
            "buffer" : 0,
            "byteLength" : 161028,
            "byteOffset" : 161028
        },
        {
            "buffer" : 0,
            "byteLength" : 107352,
            "byteOffset" : 322056
        },
        {
            "buffer" : 0,
            "byteLength" : 107352,
            "byteOffset" : 429408
        },
        {
            "buffer" : 0,
            "byteLength" : 43332,
            "byteOffset" : 536760
        }
    ],
    "buffers" : [
        {
            "byteLength" : 580092,
            "uri" : "data:application/octet-stream;base64,"
        }
    ]
}
